<svg width="17" height="17" fill="none" xmlns="http://www.w3.org/2000/svg">
  <path d="M16.502 5.014h-6.01a.493.493 0 00-.498.498v9.96c0 .28.22.499.498.499h6.01c.279 0 .498-.22.498-.498V5.512a.493.493 0 00-.498-.498zm-2.523 8.964h-.997a.493.493 0 01-.498-.498c0-.279.22-.498.498-.498h.997c.279 0 .498.22.498.498 0 .28-.22.498-.498.498zm0-5.976h-.997a.493.493 0 01-.498-.498c0-.279.22-.498.498-.498h.997c.279 0 .498.219.498.498s-.22.498-.498.498z" fill="#666"/>
  <path d="M13.979 8.002h-.997a.493.493 0 01-.498-.498c0-.279.22-.498.498-.498h.997c.279 0 .498.219.498.498s-.22.498-.498.498zM13.979 13.979h-.997a.493.493 0 01-.498-.498c0-.28.22-.499.498-.499h.997c.279 0 .498.22.498.498 0 .28-.22.498-.498.498z" fill="#666"/>
  <path d="M.498 10.99h6.508v1.992h-2.49a.498.498 0 100 .997h4.482v-.997h-.996V10.99h.996V5.512c0-.824.67-1.494 1.494-1.494h4.483v-2.49a.498.498 0 00-.498-.499H.498A.498.498 0 000 1.527v8.965c0 .275.223.498.498.498z" fill="#666"/>
</svg>
