<svg width="19" height="17" fill="none" xmlns="http://www.w3.org/2000/svg">
  <path d="M14.852 7.469h-.026a.916.916 0 00-.913.919v.716a.265.265 0 01-.271.26.265.265 0 01-.27-.26V7.781c0-.516-.394-.937-.89-.937-.498 0-.891.42-.891.937v1.403a.265.265 0 01-.271.258.265.265 0 01-.27-.258V7.396a.914.914 0 00-.905-.925h-.028a.885.885 0 00-.887.887V9.37a.265.265 0 01-.27.259.265.265 0 01-.272-.259V7.416v-.02V2.78c0-.517-.408-.937-.904-.937-.495 0-.904.42-.904.936l-.006 7.577a.26.26 0 01-.18.243.279.279 0 01-.3-.08l-.948-1.1a1.464 1.464 0 00-1.018-.514 1.452 1.452 0 00-1.06.363l-.011.01-.186.147 3.286 6.028c.519.951 1.5 1.547 2.56 1.547h3.798c1.616 0 2.933-1.357 2.934-3.02l.003-2.073c.002-1.423.002-1.946-.002-3.513a.912.912 0 00-.898-.925z" fill="#000"/>
  <path d="M5.32 2.87c.149 0 .27-.115.27-.258A2.07 2.07 0 016.68.799a2.275 2.275 0 012.19 0 2.069 2.069 0 011.089 1.813c0 .143.121.258.27.258.15 0 .272-.115.272-.258C10.504 1.68 9.985.817 9.14.35a2.839 2.839 0 00-2.732 0c-.845.467-1.364 1.33-1.36 2.262 0 .143.12.258.27.258z" fill="#000"/>
</svg>
